<svg width="32" height="32" viewBox="0 0 32 32" fill="none" xmlns="http://www.w3.org/2000/svg">
<g opacity="0.5">
<path d="M0 8C0 3.58172 3.58172 0 8 0H24C28.4183 0 32 3.58172 32 8V24C32 28.4183 28.4183 32 24 32H8C3.58172 32 0 28.4183 0 24V8Z" fill="#9923F6"/>
<path d="M11.75 11.2632C11.75 13.6136 13.6568 15.5263 16 15.5263C18.3432 15.5263 20.25 13.6136 20.25 11.2632C20.25 8.91274 18.3432 7 16 7C13.6568 7 11.75 8.91274 11.75 11.2632ZM23.5556 25H24.5V24.0526C24.5 20.3967 21.5335 17.4211 17.8889 17.4211H14.1111C10.4656 17.4211 7.5 20.3967 7.5 24.0526V25H23.5556Z" fill="white"/>
</g>
</svg>
