<svg width="32" height="32" viewBox="0 0 32 32" fill="none" xmlns="http://www.w3.org/2000/svg">
<g opacity="0.75">
<path d="M0 8C0 3.58172 3.58172 0 8 0H24C28.4183 0 32 3.58172 32 8V24C32 28.4183 28.4183 32 24 32H8C3.58172 32 0 28.4183 0 24V8Z" fill="#3AC922"/>
<path fill-rule="evenodd" clip-rule="evenodd" d="M16.0212 6C13.5158 6 11.2328 6.82896 9.88219 7.50624C9.76016 7.56735 9.64646 7.62736 9.54052 7.68514C9.33086 7.79959 9.15225 7.90627 9.01026 8.00017L10.5467 10.2659L11.27 10.5543C14.0965 11.9827 17.8871 11.9827 20.7142 10.5543L21.5351 10.1276L22.9883 8.00017C22.6872 7.80348 22.3742 7.62589 22.0509 7.46846C20.7075 6.7984 18.4794 6 16.0212 6ZM12.4475 8.56466C11.9034 8.46268 11.3661 8.3276 10.8384 8.16018C12.1036 7.59736 13.9895 7.00008 16.0206 7.00008C17.4278 7.00008 18.7584 7.28677 19.8589 7.65014C18.5693 7.83182 17.1932 8.14018 15.882 8.51965C14.8503 8.81857 13.6445 8.78634 12.4475 8.56466ZM21.2999 11.3782L21.164 11.4471C18.054 13.0184 13.9296 13.0184 10.8196 11.4471L10.6909 11.3816C6.01953 16.5159 2.45305 26 16.0212 26C29.5882 26 25.9347 16.3386 21.2999 11.3782ZM15.4443 16.0008C15.1501 16.0008 14.868 16.1179 14.6599 16.3263C14.4519 16.5347 14.335 16.8173 14.335 17.112C14.335 17.4067 14.4519 17.6894 14.6599 17.8978C14.868 18.1062 15.1501 18.2232 15.4443 18.2232V16.0008ZM16.5537 14.8896V14.334H15.4443V14.8896C14.8559 14.8896 14.2916 15.1238 13.8755 15.5406C13.4594 15.9573 13.2257 16.5226 13.2257 17.112C13.2257 17.7015 13.4594 18.2667 13.8755 18.6835C14.2916 19.1003 14.8559 19.3344 15.4443 19.3344V21.5569C15.2149 21.5569 14.9911 21.4857 14.8038 21.3531C14.6164 21.2204 14.4748 21.0329 14.3982 20.8162C14.3493 20.6773 14.2472 20.5635 14.1144 20.4999C13.9817 20.4364 13.8292 20.4282 13.6905 20.4773C13.5518 20.5264 13.4382 20.6286 13.3747 20.7616C13.3113 20.8946 13.3032 21.0473 13.3522 21.1863C13.5052 21.6196 13.7885 21.9948 14.1632 22.2602C14.5379 22.5256 14.9855 22.668 15.4443 22.6681V23.2237H16.5537V22.6681C17.1421 22.6681 17.7064 22.4339 18.1225 22.0171C18.5386 21.6003 18.7723 21.0351 18.7723 20.4456C18.7723 19.8562 18.5386 19.291 18.1225 18.8742C17.7064 18.4574 17.1421 18.2232 16.5537 18.2232V16.0008C17.0362 16.0008 17.4472 16.3092 17.6003 16.7415C17.623 16.8122 17.6597 16.8776 17.7081 16.9339C17.7565 16.9902 17.8156 17.0362 17.8821 17.0692C17.9486 17.1021 18.0209 17.1214 18.095 17.1259C18.169 17.1304 18.2432 17.1199 18.3131 17.0952C18.383 17.0704 18.4473 17.0319 18.5021 16.9818C18.5569 16.9317 18.6011 16.8712 18.6321 16.8037C18.6631 16.7362 18.6803 16.6632 18.6827 16.589C18.6851 16.5147 18.6725 16.4407 18.6458 16.3714C18.4928 15.9381 18.2095 15.5629 17.8348 15.2975C17.4601 15.0321 17.0125 14.8896 16.5537 14.8896ZM16.5537 19.3344V21.5569C16.8479 21.5569 17.13 21.4398 17.3381 21.2314C17.5461 21.023 17.663 20.7404 17.663 20.4456C17.663 20.1509 17.5461 19.8683 17.3381 19.6599C17.13 19.4515 16.8479 19.3344 16.5537 19.3344Z" fill="white"/>
</g>
</svg>
