<svg width="32" height="32" viewBox="0 0 32 32" fill="none" xmlns="http://www.w3.org/2000/svg">
<path d="M18.5799 31.9834L18.5552 28.3403C18.5552 25.4084 22.0349 26.4728 21.507 21.9108L20.5249 4.87189C20.4926 4.10845 19.5752 4.09426 19.6033 4.85801L19.4539 19.448C19.3781 20.6369 17.9678 20.4401 18.0127 19.1903L17.8314 4.84164C17.8314 3.98539 16.9402 4.15832 16.9319 4.90489L16.6887 19.5404C16.6602 20.4728 15.2811 20.3821 15.3099 19.4966L15.1033 4.81826C15.1033 4.15576 14.2539 4.09045 14.2361 4.73951L13.9878 19.5606C13.9216 20.5729 12.5594 20.4367 12.63 19.3434L12.4594 4.86001C12.4704 4.04226 11.6316 4.08507 11.5929 4.86001L10.4813 22.6256C10.4552 26.4517 13.4283 25.2425 13.4959 28.5124L13.4921 32C2.64212 30.3233 -3.59601 17.8727 2.22724 7.91807C8.46087 -2.73805 23.8825 -2.61367 29.9195 8.14132C35.4957 18.0753 29.2374 30.259 18.5799 31.9834Z" fill="#0080FF"/>
</svg>
