<svg width="40" height="40" viewBox="0 0 40 40" fill="none" xmlns="http://www.w3.org/2000/svg">
<path d="M23.2248 39.9793L23.1941 35.4254C23.1941 31.7605 27.5436 33.091 26.8837 27.3885L25.6562 6.08986C25.6158 5.13556 24.469 5.11783 24.5041 6.07251L24.3174 24.31C24.2226 25.7962 22.4598 25.5502 22.5159 23.9878L22.2893 6.05205C22.2893 4.98173 21.1752 5.1979 21.1648 6.13111L20.8609 24.4255C20.8253 25.5909 19.1013 25.4776 19.1374 24.3708L18.8791 6.02283C18.8791 5.1947 17.8174 5.11306 17.7952 5.92439L17.4848 24.4507C17.4019 25.7161 15.6993 25.5459 15.7875 24.1793L15.5743 6.07501C15.588 5.05283 14.5395 5.10634 14.4912 6.07501L13.1016 28.282C13.069 33.0646 16.7854 31.5531 16.8698 35.6405L16.8652 40C3.30265 37.9041 -4.49501 22.3409 2.78406 9.89759C10.5761 -3.42256 29.8531 -3.26709 37.3994 10.1767C44.3696 22.5941 36.5467 37.8237 23.2248 39.9793Z" fill="#0080FF"/>
</svg>
