<svg width="32" height="32" viewBox="0 0 32 32" fill="none" xmlns="http://www.w3.org/2000/svg">
<g opacity="0.5">
<path d="M0 8C0 3.58172 3.58172 0 8 0H24C28.4183 0 32 3.58172 32 8V24C32 28.4183 28.4183 32 24 32H8C3.58172 32 0 28.4183 0 24V8Z" fill="#0080FF"/>
<path d="M13.2222 11.1213C13.2222 10.3846 13.5149 9.67806 14.0358 9.15713C14.5567 8.63619 15.2633 8.34353 16 8.34353C16.7367 8.34353 17.4432 8.63619 17.9642 9.15713C18.4851 9.67806 18.7778 10.3846 18.7778 11.1213V12.6658H19.8889V11.1213C19.8889 10.6106 19.7883 10.1049 19.5928 9.6331C19.3974 9.16128 19.1109 8.73257 18.7498 8.37145C18.3887 8.01033 17.96 7.72388 17.4882 7.52845C17.0164 7.33301 16.5107 7.23242 16 7.23242C15.4893 7.23242 14.9836 7.33301 14.5118 7.52845C14.0399 7.72388 13.6112 8.01033 13.2501 8.37145C12.889 8.73257 12.6025 9.16128 12.4071 9.6331C12.2117 10.1049 12.1111 10.6106 12.1111 11.1213V12.6658H13.2222V11.1213Z" fill="white"/>
<path d="M19.8888 12.666V14.3882C19.8888 14.5356 19.8303 14.6769 19.7261 14.7811C19.6219 14.8853 19.4806 14.9438 19.3333 14.9438C19.1859 14.9438 19.0446 14.8853 18.9404 14.7811C18.8363 14.6769 18.7777 14.5356 18.7777 14.3882V12.666H13.2222V14.3882C13.2222 14.5356 13.1636 14.6769 13.0594 14.7811C12.9553 14.8853 12.814 14.9438 12.6666 14.9438C12.5193 14.9438 12.378 14.8853 12.2738 14.7811C12.1696 14.6769 12.1111 14.5356 12.1111 14.3882V12.666H8.22217V23.7771C8.22217 24.0718 8.33923 24.3544 8.5476 24.5628C8.75598 24.7712 9.03859 24.8882 9.33328 24.8882H22.6666C22.9613 24.8882 23.2439 24.7712 23.4523 24.5628C23.6607 24.3544 23.7777 24.0718 23.7777 23.7771V12.666H19.8888Z" fill="white"/>
</g>
</svg>
