<svg width="32" height="32" viewBox="0 0 32 32" fill="none" xmlns="http://www.w3.org/2000/svg">
<g opacity="0.75">
<path d="M0 8C0 3.58172 3.58172 0 8 0H24C28.4183 0 32 3.58172 32 8V24C32 28.4183 28.4183 32 24 32H8C3.58172 32 0 28.4183 0 24V8Z" fill="#F6AE23"/>
<path fill-rule="evenodd" clip-rule="evenodd" d="M8.01744 6.25C7.81269 6.25 7.63015 6.39191 7.55973 6.60533L6.30958 10.4029C6.27011 10.523 6.25 10.6486 6.25 10.775V12.2857C6.25 13.1399 6.87345 13.8332 7.64261 13.8332C8.41176 13.8332 9.03576 13.1399 9.03576 12.2857C9.03576 13.1405 9.65921 13.8332 10.4284 13.8332C11.1975 13.8332 11.8215 13.1399 11.8215 12.2857C11.8215 13.1405 12.445 13.8332 13.2141 13.8332C13.9833 13.8332 14.6062 13.141 14.6073 12.2868C14.6073 13.141 15.2307 13.8332 15.9999 13.8332C16.769 13.8332 17.3925 13.1399 17.3925 12.2857C17.3925 13.1405 18.0165 13.8332 18.7856 13.8332C19.5548 13.8332 20.1777 13.141 20.1782 12.2868C20.1788 13.141 20.8022 13.8332 21.5714 13.8332C22.3405 13.8332 22.964 13.1399 22.964 12.2857C22.964 13.1405 23.5875 13.8332 24.3571 13.8332C25.1263 13.8332 25.7498 13.1399 25.7498 12.2857V10.775C25.7498 10.6486 25.7296 10.523 25.6902 10.4029L24.44 6.60587C24.3696 6.39191 24.1871 6.25 23.9823 6.25H8.01744Z" fill="white"/>
<path fill-rule="evenodd" clip-rule="evenodd" d="M8.41648 14.4989V18.7076H7.06233C6.99051 18.7076 6.92162 18.7361 6.87083 18.7869C6.82004 18.8377 6.7915 18.9066 6.7915 18.9784V19.5201C6.7915 19.5919 6.82004 19.6608 6.87083 19.7116C6.92162 19.7624 6.99051 19.7909 7.06233 19.7909H24.9371C25.0089 19.7909 25.0778 19.7624 25.1286 19.7116C25.1794 19.6608 25.2079 19.5919 25.2079 19.5201V18.9784C25.2079 18.9066 25.1794 18.8377 25.1286 18.7869C25.0778 18.7361 25.0089 18.7076 24.9371 18.7076H23.583V14.4989C23.3562 14.4086 23.1468 14.2797 22.9638 14.1181C22.8234 14.242 22.6673 14.3469 22.4996 14.4301V18.7076H9.4998V14.4301C9.33209 14.3469 9.17603 14.242 9.0356 14.1181C8.8536 14.2779 8.64561 14.4079 8.41648 14.4989ZM22.4996 13.4389C22.5457 13.3928 22.589 13.3436 22.6296 13.291H22.4996V13.4389ZM23.298 13.291C23.3799 13.3971 23.4758 13.4917 23.583 13.5721V13.291H23.298ZM8.41648 13.5721C8.52421 13.4923 8.62013 13.3977 8.7014 13.291H8.41648V13.5721ZM9.3698 13.291H9.4998V13.4389C9.45327 13.3925 9.40985 13.3431 9.3698 13.291ZM7.60399 20.8743C7.53217 20.8743 7.46328 20.9028 7.41249 20.9536C7.3617 21.0044 7.33316 21.0733 7.33316 21.1451V25.2075C7.33316 25.3512 7.39023 25.489 7.49181 25.5905C7.59339 25.6921 7.73117 25.7492 7.87482 25.7492H24.1246C24.2683 25.7492 24.406 25.6921 24.5076 25.5905C24.6092 25.489 24.6663 25.3512 24.6663 25.2075V21.1451C24.6663 21.0733 24.6377 21.0044 24.587 20.9536C24.5362 20.9028 24.4673 20.8743 24.3954 20.8743H7.60399Z" fill="white"/>
</g>
</svg>
