<svg width="18" height="20" viewBox="0 0 18 20" fill="none" xmlns="http://www.w3.org/2000/svg">
<path d="M1.97314 15.748H16.0269C16.9321 15.748 17.4858 15.2559 17.4858 14.5176C17.4858 13.5859 16.6421 12.7861 15.8511 12.0303C15.2271 11.4238 15.0864 10.1582 14.9722 8.98926C14.8315 5.77246 13.8911 3.50488 11.6147 2.6875C11.2544 1.52734 10.2964 0.630859 8.99561 0.630859C7.70361 0.630859 6.74561 1.52734 6.37646 2.6875C4.10889 3.50488 3.15967 5.77246 3.02783 8.98926C2.91357 10.1582 2.76416 11.4238 2.14893 12.0303C1.35791 12.7861 0.51416 13.5859 0.51416 14.5176C0.51416 15.2559 1.06787 15.748 1.97314 15.748ZM8.99561 19.3691C10.5601 19.3691 11.6938 18.2529 11.8081 16.9785H6.19189C6.30615 18.2529 7.43994 19.3691 8.99561 19.3691Z" fill="#909DB8"/>
</svg>
