<svg width="6" height="20" viewBox="0 0 6 20" fill="none" xmlns="http://www.w3.org/2000/svg">
<path d="M3.00105 7.80078C1.78605 7.80078 0.800049 8.78578 0.800049 10.0008C0.800049 11.2158 1.78605 12.2008 3.00105 12.2008C4.21605 12.2008 5.20005 11.2158 5.20005 10.0008C5.20005 8.78578 4.21605 7.80078 3.00105 7.80078ZM3.00105 5.20078C4.21605 5.20078 5.20005 4.21478 5.20005 3.00078C5.20005 1.78678 4.21605 0.800781 3.00105 0.800781C1.78605 0.800781 0.800049 1.78578 0.800049 3.00078C0.800049 4.21578 1.78605 5.20078 3.00105 5.20078ZM3.00105 14.8008C1.78605 14.8008 0.800049 15.7858 0.800049 17.0008C0.800049 18.2158 1.78605 19.2008 3.00105 19.2008C4.21605 19.2008 5.20005 18.2158 5.20005 17.0008C5.20005 15.7858 4.21605 14.8008 3.00105 14.8008Z" fill="#90A2B3"/>
</svg>
