<svg width="20" height="18" viewBox="0 0 20 18" fill="none" xmlns="http://www.w3.org/2000/svg">
<path d="M2.94434 17.7139H17.0469C18.9541 17.7139 19.9473 16.7295 19.9473 14.8486V3.15234C19.9473 1.27148 18.9541 0.287109 17.0469 0.287109H2.94434C1.0459 0.287109 0.0527344 1.2627 0.0527344 3.15234V14.8486C0.0527344 16.7295 1.0459 17.7139 2.94434 17.7139ZM2.93555 15.9648C2.20605 15.9648 1.80176 15.5869 1.80176 14.8135V3.72754C1.80176 2.9541 2.20605 2.57617 2.93555 2.57617H17.0557C17.7852 2.57617 18.1895 2.9541 18.1895 3.72754V14.8135C18.1895 15.5869 17.7852 15.9648 17.0557 15.9648H2.93555ZM4.17773 8.6084H15.6963C16.0039 8.6084 16.1094 8.51172 16.1094 8.2041V7.68555C16.1094 7.36914 16.0039 7.27246 15.6963 7.27246H4.17773C3.86133 7.27246 3.75586 7.36914 3.75586 7.68555V8.2041C3.75586 8.51172 3.86133 8.6084 4.17773 8.6084ZM4.17773 14.4385H15.6963C16.0039 14.4385 16.1094 14.3418 16.1094 14.0254V10.5068C16.1094 10.1992 16.0039 10.1025 15.6963 10.1025H4.17773C3.86133 10.1025 3.75586 10.1992 3.75586 10.5068V14.0254C3.75586 14.3418 3.86133 14.4385 4.17773 14.4385Z" fill="#909DB8"/>
<path d="M15.6963 5.65039H4.17773C3.86133 5.65039 3.75586 5.55371 3.75586 5.24609V4.72754C3.75586 4.41113 3.86133 4.31445 4.17773 4.31445H15.6963C16.0039 4.31445 16.1094 4.41113 16.1094 4.72754V5.24609C16.1094 5.55371 16.0039 5.65039 15.6963 5.65039Z" fill="#909DB8"/>
</svg>
